<svg width="190" height="65" viewBox="0 0 190 65" fill="none" xmlns="http://www.w3.org/2000/svg">
    <g clip-path="url(#clip0_1104_4127)">
        <path
            d="M18.2587 -0.499878V21.1053C18.2587 29.6903 13.1441 37.0863 5.83789 40.3473H25.5247V-0.499825H18.2587V-0.499878Z"
            fill="#00776C" />
        <path d="M10.6815 21.1051V-0.5H0V34.211C6.07709 33.0168 10.6815 27.5976 10.6815 21.1051Z" fill="#00776C" />
        <path d="M33.1057 40.348H40.3714V-0.499023H33.1057V40.348Z" fill="#00776C" />
        <path
            d="M106.549 22.3248C106.817 19.904 109.359 15.8978 114.969 15.8978C120.034 15.8978 122.771 19.2847 123.136 22.3248H106.549ZM129.39 24.7379C129.424 14.3259 122.372 9.4323 114.243 9.91115C104.847 10.464 100.157 17.6499 100.157 24.9327C100.157 34.4159 106.095 40.9332 116.214 40.9332C121.358 40.9332 125.999 38.8466 128.051 37.2476L126.989 31.4847C125.051 33.0524 121.932 35.0495 116.315 35.0495C110.673 35.0495 107.266 32.0419 106.431 27.9259H129.424C129.424 27.9259 129.385 26.3965 129.39 24.7379H129.39Z"
            fill="#434242" />
        <path d="M135.558 40.348H141.706V-0.499023H135.558V40.348Z" fill="#434242" />
        <path d="M149.014 40.348H155.162V-0.499023H149.014V40.348Z" fill="#434242" />
        <path
            d="M175.645 34.812C171.137 34.812 167.169 31.3901 167.169 25.4079C167.169 19.4247 171.137 16.0028 175.645 16.0028C179.996 16.0028 183.96 19.1618 183.96 25.4079C183.96 31.653 179.996 34.812 175.645 34.812ZM184.045 10.4671V13.3805C181.894 11.1094 178.913 9.88123 175.216 9.88123C166.251 9.88123 160.651 16.5422 160.651 25.4079C160.651 34.2727 166.251 40.9337 175.216 40.9337C178.913 40.9337 181.894 39.7054 184.045 37.4344V40.3478H190V10.4672H184.045V10.4671Z"
            fill="#434242" />
        <path
            d="M67.5956 22.5379C63.0348 21.7488 61.3686 20.6676 61.3686 19.0268C61.3686 17.8929 62.2539 15.9129 67.0146 15.9129C70.8548 15.9129 73.5752 16.9581 75.5062 18.2816L76.5947 12.371C74.8068 11.2575 71.7635 9.87952 67.0147 9.87952C59.9675 9.87952 55.4143 13.4707 55.4143 19.0268C55.4143 23.4848 57.2049 26.6516 65.9192 27.9511C71.1305 28.7277 72.2822 29.6548 72.2822 31.4726C72.2822 34.2234 68.7228 34.8419 66.5766 34.8419C61.162 34.8419 58.1337 33.081 56.6172 31.7508L55.4313 38.1914C57.9894 39.6562 61.5932 40.876 66.5767 40.876C71.4113 40.876 78.2519 38.6457 78.2519 31.7677C78.2519 25.9685 75.7946 23.9569 67.5957 22.538L67.5956 22.5379Z"
            fill="#434242" />
        <path
            d="M92.0359 3.67676H91.8416H85.8873V10.4679H81.4395V16.4926H85.8873V40.3475H92.0359V16.4926H96.4839V10.4679H92.0359V3.67676Z"
            fill="#434242" />
        <path
            d="M6.87211 52.9558C6.80576 52.3981 6.54295 51.9669 6.07856 51.6572C5.61417 51.35 5.04516 51.1951 4.37159 51.1951C3.87658 51.1951 3.44792 51.2777 3.0805 51.4377C2.71054 51.6004 2.42471 51.8224 2.2206 52.1038C2.01648 52.3852 1.91445 52.7079 1.91445 53.0668C1.91445 53.3663 1.98592 53.6244 2.12881 53.8387C2.27169 54.053 2.45538 54.2311 2.67997 54.3731C2.90452 54.5151 3.13925 54.6287 3.3867 54.7191C3.6342 54.8094 3.85874 54.8817 4.06544 54.936L5.19839 55.2457C5.4867 55.3206 5.81079 55.4291 6.16797 55.5633C6.52521 55.7001 6.86709 55.8834 7.19631 56.1158C7.52288 56.3507 7.79334 56.6476 8.00765 57.0116C8.222 57.373 8.32915 57.8197 8.32915 58.3463C8.32915 58.9556 8.17096 59.5056 7.85964 59.9986C7.54584 60.4891 7.0891 60.8789 6.48948 61.1681C5.88727 61.4598 5.16012 61.6044 4.30534 61.6044C3.50926 61.6044 2.81774 61.4727 2.23601 61.212C1.65423 60.9539 1.19749 60.5898 0.865798 60.1251C0.534105 59.6578 0.347832 59.1182 0.304443 58.5011H1.69503C1.7333 58.9271 1.87365 59.2782 2.12369 59.5545C2.37119 59.8307 2.68504 60.0373 3.06778 60.1716C3.45051 60.3032 3.86386 60.3703 4.30529 60.3703C4.82072 60.3703 5.28253 60.2852 5.69081 60.1148C6.10157 59.9444 6.42561 59.7069 6.66551 59.3997C6.90531 59.0951 7.0227 58.7362 7.0227 58.3257C7.0227 57.9513 6.92062 57.6467 6.71397 57.4117C6.50727 57.1769 6.23427 56.9858 5.89751 56.8386C5.5607 56.694 5.19839 56.565 4.80542 56.4539L3.4352 56.0589C2.56512 55.806 1.87618 55.4445 1.37094 54.9746C0.863212 54.5047 0.608055 53.8903 0.608055 53.1313C0.608055 52.5013 0.779022 51.9515 1.11583 51.479C1.45518 51.0091 1.91192 50.6426 2.48599 50.3792C3.06271 50.1159 3.70308 49.9868 4.41503 49.9868C5.13199 49.9868 5.76988 50.1159 6.3287 50.374C6.88493 50.6322 7.3289 50.9859 7.65806 51.4326C7.98463 51.8791 8.15818 52.3878 8.17602 52.9558H6.87221H6.87211ZM13.7665 61.5812C13.0112 61.5812 12.3503 61.4005 11.7838 61.0365C11.2174 60.675 10.776 60.1664 10.457 59.5133C10.1407 58.86 9.98244 58.0985 9.98244 57.2258C9.98244 56.3455 10.1407 55.5761 10.457 54.9204C10.776 54.2646 11.2174 53.7535 11.7838 53.392C12.3503 53.028 13.0111 52.8473 13.7665 52.8473C14.5191 52.8473 15.18 53.028 15.7465 53.392C16.3155 53.7534 16.7569 54.2646 17.0733 54.9204C17.3922 55.5761 17.5504 56.3455 17.5504 57.2258C17.5504 58.0985 17.3922 58.86 17.0733 59.5133C16.7569 60.1664 16.3155 60.675 15.7465 61.0365C15.18 61.4005 14.5192 61.5812 13.7665 61.5812ZM13.7665 60.4143C14.338 60.4143 14.81 60.2672 15.18 59.9703C15.55 59.6734 15.823 59.2835 15.999 58.7982C16.1777 58.3154 16.267 57.7887 16.267 57.2259C16.267 56.6605 16.1776 56.1338 15.999 55.6459C15.823 55.1579 15.55 54.7655 15.18 54.4635C14.81 54.164 14.338 54.0117 13.7665 54.0117C13.1923 54.0117 12.7228 54.164 12.3529 54.4635C11.9829 54.7655 11.7098 55.158 11.5313 55.6459C11.3527 56.1338 11.2659 56.6605 11.2659 57.2259C11.2659 57.7887 11.3527 58.3154 11.5313 58.7982C11.7099 59.2836 11.9829 59.6734 12.3529 59.9703C12.7228 60.2672 13.1923 60.4143 13.7665 60.4143ZM20.7909 50.1391V61.4057H19.5075V50.1391H20.7909ZM28.4022 57.9513V52.9558H29.6856V61.4057H28.4022V59.9754H28.3154C28.119 60.404 27.8154 60.768 27.402 61.0675C26.9887 61.367 26.4656 61.5167 25.8353 61.5167C25.3148 61.5167 24.8504 61.4005 24.4447 61.1656C24.0365 60.9332 23.7175 60.5821 23.4878 60.1097C23.2557 59.6398 23.1383 59.0434 23.1383 58.3258V52.9558H24.4217V58.238C24.4217 58.8525 24.5927 59.3456 24.9346 59.7121C25.2791 60.0787 25.7154 60.2621 26.2486 60.2621C26.5676 60.2621 26.8916 60.1795 27.2233 60.0143C27.555 59.849 27.8357 59.596 28.0628 59.2552C28.2874 58.9145 28.4022 58.4782 28.4022 57.9515L28.4022 57.9513ZM35.6665 52.9558V54.0556H31.339V52.9558H35.6665ZM32.5996 50.9317H33.883V58.9841C33.883 59.3532 33.9366 59.6269 34.0412 59.8076C34.1484 59.9883 34.2861 60.1096 34.4546 60.1716C34.6255 60.231 34.8016 60.262 34.9904 60.262C35.1333 60.262 35.2481 60.2542 35.3399 60.2361C35.4293 60.2206 35.5033 60.2052 35.5568 60.1948L35.8171 61.3617C35.7303 61.3953 35.6104 61.4289 35.4522 61.4625C35.2966 61.4986 35.1001 61.5167 34.8602 61.5167C34.4979 61.5167 34.1433 61.4366 33.7988 61.2792C33.4518 61.1217 33.1659 60.8816 32.9389 60.5589C32.7118 60.2362 32.5996 59.8283 32.5996 59.3378V50.9318V50.9317ZM37.6006 61.4057V52.9558H38.8841V61.4057H37.6006ZM38.2538 51.5487C38.0038 51.5487 37.7895 51.4609 37.6083 51.2906C37.4297 51.1176 37.3404 50.9111 37.3404 50.6684C37.3404 50.4257 37.4297 50.2191 37.6083 50.0462C37.7895 49.8732 38.0038 49.788 38.2538 49.788C38.5039 49.788 38.7182 49.8732 38.8969 50.0462C39.078 50.2191 39.1673 50.4257 39.1673 50.6684C39.1673 50.911 39.078 51.1176 38.8969 51.2906C38.7182 51.461 38.5039 51.5487 38.2538 51.5487ZM44.6251 61.5812C43.8698 61.5812 43.209 61.4005 42.6425 61.0365C42.076 60.675 41.6347 60.1664 41.3157 59.5133C40.9994 58.86 40.8411 58.0985 40.8411 57.2258C40.8411 56.3455 40.9994 55.5761 41.3157 54.9204C41.6347 54.2646 42.076 53.7535 42.6425 53.392C43.209 53.028 43.8698 52.8473 44.6251 52.8473C45.3778 52.8473 46.0387 53.028 46.6052 53.392C47.1742 53.7534 47.6156 54.2646 47.932 54.9204C48.2509 55.5761 48.4091 56.3455 48.4091 57.2258C48.4091 58.0985 48.2509 58.86 47.932 59.5133C47.6156 60.1664 47.1742 60.675 46.6052 61.0365C46.0387 61.4005 45.3779 61.5812 44.6251 61.5812ZM44.6251 60.4143C45.1967 60.4143 45.6687 60.2672 46.0387 59.9703C46.4086 59.6734 46.6817 59.2835 46.8577 58.7982C47.0363 58.3154 47.1256 57.7887 47.1256 57.2259C47.1256 56.6605 47.0363 56.1338 46.8577 55.6459C46.6816 55.1579 46.4086 54.7655 46.0387 54.4635C45.6687 54.164 45.1967 54.0117 44.6251 54.0117C44.051 54.0117 43.5815 54.164 43.2115 54.4635C42.8416 54.7655 42.5685 55.158 42.3899 55.6459C42.2113 56.1338 42.1246 56.6605 42.1246 57.2259C42.1246 57.7887 42.2114 58.3154 42.3899 58.7982C42.5686 59.2836 42.8416 59.6734 43.2115 59.9703C43.5815 60.2672 44.051 60.4143 44.6251 60.4143ZM51.6496 56.3223V61.4057H50.3661V52.9558H51.6062V54.2776H51.7159C51.9099 53.8464 52.2084 53.5031 52.6064 53.2397C53.0044 52.9764 53.5199 52.8473 54.1502 52.8473C54.7166 52.8473 55.2116 52.9635 55.6352 53.1958C56.0587 53.4282 56.3879 53.7819 56.6252 54.2518C56.8599 54.7242 56.9773 55.318 56.9773 56.0357V61.4056H55.6939V56.126C55.6939 55.4599 55.5254 54.9436 55.1836 54.5718C54.8416 54.1975 54.3747 54.0116 53.7802 54.0116C53.3719 54.0116 53.0071 54.1019 52.6855 54.2826C52.3641 54.4608 52.1114 54.7241 51.9278 55.0674C51.7414 55.4134 51.6496 55.8316 51.6496 56.3221L51.6496 56.3223ZM65.2392 54.8482L64.0885 55.1786C64.0145 54.9849 63.9099 54.7939 63.7696 54.6106C63.6292 54.4247 63.4405 54.2724 63.2006 54.1511C62.9633 54.0297 62.657 53.9677 62.282 53.9677C61.7717 53.9677 61.3456 54.0865 61.0088 54.324C60.6694 54.5589 60.4985 54.861 60.4985 55.2224C60.4985 55.5451 60.6158 55.8008 60.848 55.9866C61.0802 56.1751 61.4425 56.3299 61.935 56.4539L63.1751 56.7637C63.9201 56.947 64.4763 57.2258 64.8438 57.6027C65.2086 57.9771 65.3923 58.4599 65.3923 59.0511C65.3923 59.5364 65.2545 59.9675 64.9815 60.3497C64.7085 60.7317 64.3258 61.0312 63.8384 61.2506C63.3485 61.4727 62.7795 61.5811 62.1314 61.5811C61.2792 61.5811 60.5749 61.3952 60.0162 61.0208C59.4574 60.6465 59.1053 60.0992 58.9547 59.3815L60.1744 59.0743C60.2892 59.5287 60.5086 59.8694 60.8353 60.0967C61.1593 60.3239 61.5828 60.4374 62.1085 60.4374C62.7056 60.4374 63.1827 60.3083 63.5348 60.0502C63.8894 59.792 64.0655 59.4796 64.0655 59.1182C64.0655 58.8239 63.9634 58.576 63.7619 58.3773C63.5577 58.1785 63.2465 58.0288 62.8255 57.928L61.4349 57.6002C60.6694 57.4169 60.1081 57.1303 59.7534 56.7431C59.3962 56.3558 59.2176 55.873 59.2176 55.2896C59.2176 54.8119 59.3503 54.3911 59.6156 54.0246C59.8835 53.658 60.2459 53.3688 60.7077 53.1597C61.1721 52.9505 61.6952 52.8473 62.2821 52.8473C63.1088 52.8473 63.7594 53.0307 64.2315 53.3972C64.7061 53.7638 65.0403 54.2466 65.2393 54.8482H65.2392ZM75.3536 52.9558V54.0556H70.8501V52.9558H75.3536ZM72.1999 61.4057V51.7915C72.1999 51.3061 72.3122 50.9033 72.5367 50.5807C72.7613 50.2579 73.0521 50.0152 73.4119 49.8552C73.7717 49.6926 74.1493 49.6125 74.5474 49.6125C74.8638 49.6125 75.1215 49.6383 75.3204 49.69C75.5195 49.7416 75.6675 49.7881 75.767 49.832L75.397 50.9551C75.3307 50.9319 75.2414 50.906 75.1266 50.8725C75.0118 50.8389 74.8638 50.8234 74.6775 50.8234C74.2539 50.8234 73.9503 50.9292 73.7615 51.1461C73.5752 51.363 73.4834 51.6805 73.4834 52.0988V61.4058H72.2L72.1999 61.4057ZM80.2017 61.5813C79.4464 61.5813 78.7855 61.4005 78.2191 61.0365C77.6526 60.6751 77.2112 60.1665 76.8922 59.5133C76.5759 58.8601 76.4177 58.0985 76.4177 57.2259C76.4177 56.3455 76.5759 55.5762 76.8922 54.9205C77.2112 54.2647 77.6526 53.7535 78.2191 53.3921C78.7855 53.028 79.4463 52.8473 80.2017 52.8473C80.9544 52.8473 81.6152 53.028 82.1817 53.3921C82.7507 53.7535 83.1921 54.2647 83.5085 54.9205C83.8274 55.5762 83.9856 56.3455 83.9856 57.2259C83.9856 58.0985 83.8274 58.8601 83.5085 59.5133C83.1921 60.1665 82.7507 60.6751 82.1817 61.0365C81.6152 61.4005 80.9544 61.5813 80.2017 61.5813ZM80.2017 60.4143C80.7732 60.4143 81.2452 60.2672 81.6152 59.9703C81.9852 59.6734 82.2582 59.2836 82.4343 58.7982C82.6129 58.3154 82.7022 57.7888 82.7022 57.2259C82.7022 56.6606 82.6128 56.1339 82.4343 55.6459C82.2582 55.158 81.9852 54.7656 81.6152 54.4635C81.2452 54.1641 80.7732 54.0117 80.2017 54.0117C79.6275 54.0117 79.158 54.1641 78.7881 54.4635C78.4181 54.7656 78.1451 55.158 77.9665 55.6459C77.7879 56.1339 77.7011 56.6606 77.7011 57.2259C77.7011 57.7888 77.7879 58.3154 77.9665 58.7982C78.1451 59.2836 78.4181 59.6734 78.7881 59.9703C79.158 60.2672 79.6275 60.4143 80.2017 60.4143ZM85.9427 61.4057V52.9558H87.1827V54.2338H87.2695C87.4226 53.8155 87.6982 53.4747 88.0962 53.2139C88.4942 52.9558 88.9433 52.8241 89.4434 52.8241C89.5378 52.8241 89.6552 52.8267 89.7981 52.8293C89.9384 52.8344 90.0456 52.8396 90.1196 52.8474V54.1666C90.0762 54.1563 89.9767 54.1382 89.821 54.115C89.6679 54.0917 89.5072 54.0788 89.3363 54.0788C88.9306 54.0788 88.5683 54.164 88.2518 54.3344C87.9329 54.5048 87.6828 54.7397 87.5017 55.0392C87.3179 55.336 87.2261 55.6769 87.2261 56.0589V61.4057H85.9427V61.4057ZM95.9474 64.5735V52.9558H97.1874V54.2983H97.3405C97.435 54.1511 97.5651 53.9653 97.7335 53.7355C97.9019 53.5057 98.1443 53.2992 98.4632 53.1184C98.7796 52.9377 99.2108 52.8474 99.7543 52.8474C100.456 52.8474 101.076 53.0255 101.612 53.3792C102.15 53.7355 102.569 54.2389 102.87 54.8921C103.168 55.5453 103.319 56.3146 103.319 57.2027C103.319 58.0986 103.168 58.8731 102.87 59.5262C102.569 60.182 102.15 60.6881 101.619 61.0443C101.086 61.4032 100.471 61.5813 99.7747 61.5813C99.2388 61.5813 98.8102 61.4909 98.4862 61.3102C98.1646 61.127 97.9171 60.9204 97.7411 60.6881C97.5676 60.4557 97.435 60.2621 97.3405 60.1071H97.2308V64.5735H95.9474ZM97.2104 57.182C97.2104 57.8198 97.3023 58.38 97.4859 58.8679C97.6722 59.3533 97.9401 59.7328 98.2973 60.0065C98.6519 60.2801 99.0857 60.4143 99.6012 60.4143C100.137 60.4143 100.586 60.2723 100.946 59.9832C101.308 59.6967 101.579 59.3068 101.762 58.8189C101.946 58.3284 102.038 57.7836 102.038 57.1821C102.038 56.5883 101.946 56.0513 101.767 55.5711C101.589 55.0935 101.318 54.714 100.959 54.4325C100.596 54.1538 100.145 54.0117 99.6012 54.0117C99.0806 54.0117 98.6418 54.146 98.2846 54.4119C97.9299 54.6778 97.6619 55.047 97.4808 55.522C97.2996 55.9971 97.2104 56.5496 97.2104 57.182ZM105.276 61.4057V52.9558H106.516V54.2338H106.603C106.756 53.8155 107.031 53.4747 107.429 53.2139C107.827 52.9558 108.277 52.8241 108.777 52.8241C108.871 52.8241 108.988 52.8267 109.131 52.8293C109.272 52.8344 109.379 52.8396 109.453 52.8474V54.1666C109.409 54.1563 109.31 54.1382 109.154 54.115C109.001 54.0917 108.84 54.0788 108.669 54.0788C108.264 54.0788 107.901 54.164 107.585 54.3344C107.266 54.5048 107.016 54.7397 106.835 55.0392C106.651 55.336 106.559 55.6769 106.559 56.0589V61.4057H105.276V61.4057ZM114.107 61.5813C113.352 61.5813 112.691 61.4006 112.124 61.0366C111.558 60.6751 111.116 60.1665 110.797 59.5134C110.481 58.8601 110.323 58.0986 110.323 57.2259C110.323 56.3456 110.481 55.5763 110.797 54.9205C111.116 54.2647 111.558 53.7536 112.124 53.3921C112.691 53.0281 113.352 52.8474 114.107 52.8474C114.86 52.8474 115.52 53.0281 116.087 53.3921C116.656 53.7535 117.097 54.2647 117.414 54.9205C117.733 55.5763 117.891 56.3456 117.891 57.2259C117.891 58.0986 117.733 58.8601 117.414 59.5134C117.097 60.1665 116.656 60.6751 116.087 61.0366C115.52 61.4006 114.86 61.5813 114.107 61.5813ZM114.107 60.4144C114.678 60.4144 115.15 60.2673 115.52 59.9704C115.89 59.6735 116.163 59.2836 116.34 58.7983C116.518 58.3155 116.607 57.7889 116.607 57.226C116.607 56.6606 116.518 56.1339 116.34 55.646C116.163 55.158 115.89 54.7656 115.52 54.4636C115.15 54.1641 114.678 54.0118 114.107 54.0118C113.533 54.0118 113.063 54.1641 112.693 54.4636C112.323 54.7656 112.05 55.1581 111.872 55.646C111.693 56.1339 111.606 56.6606 111.606 57.226C111.606 57.7889 111.693 58.3155 111.872 58.7983C112.05 59.2837 112.323 59.6735 112.693 59.9704C113.063 60.2673 113.533 60.4144 114.107 60.4144ZM123.568 52.9559V54.0557H119.065V52.9559H123.568ZM120.414 61.4058V51.7916C120.414 51.3062 120.527 50.9035 120.751 50.5808C120.976 50.258 121.267 50.0153 121.626 49.8553C121.986 49.6927 122.364 49.6127 122.762 49.6127C123.078 49.6127 123.336 49.6385 123.535 49.6901C123.734 49.7417 123.882 49.7882 123.981 49.8321L123.611 50.9552C123.545 50.932 123.456 50.9061 123.341 50.8726C123.226 50.839 123.078 50.8235 122.892 50.8235C122.468 50.8235 122.165 50.9294 121.976 51.1462C121.79 51.3631 121.698 51.6806 121.698 52.0989V61.4059H120.414L120.414 61.4058ZM128.523 61.5814C127.719 61.5814 127.025 61.4006 126.444 61.0392C125.862 60.6778 125.415 60.1718 125.102 59.5212C124.788 58.8706 124.632 58.1115 124.632 57.2467C124.632 56.3818 124.788 55.6176 125.102 54.9567C125.415 54.2932 125.854 53.7769 126.418 53.4051C126.982 53.0333 127.64 52.8474 128.393 52.8474C128.829 52.8474 129.258 52.9197 129.682 53.0669C130.105 53.2141 130.493 53.4516 130.84 53.7794C131.187 54.1073 131.465 54.541 131.672 55.0806C131.879 55.6201 131.983 56.2836 131.983 57.0711V57.621H125.546V56.498H130.677C130.677 56.0229 130.585 55.5969 130.396 55.2226C130.21 54.8483 129.947 54.5539 129.603 54.3371C129.261 54.1202 128.858 54.0118 128.393 54.0118C127.883 54.0118 127.441 54.1409 127.069 54.3939C126.699 54.6494 126.413 54.98 126.214 55.3878C126.015 55.7958 125.916 56.232 125.916 56.6968V57.4454C125.916 58.0831 126.025 58.6226 126.245 59.0642C126.462 59.5082 126.768 59.8438 127.161 60.071C127.551 60.3009 128.005 60.4144 128.523 60.4144C128.86 60.4144 129.166 60.3679 129.439 60.2698C129.715 60.1717 129.95 60.0271 130.149 59.8309C130.35 59.6347 130.503 59.3895 130.613 59.0952L131.85 59.4463C131.72 59.8723 131.501 60.2466 131.195 60.5668C130.886 60.8869 130.506 61.1373 130.052 61.3154C129.6 61.4936 129.09 61.5813 128.523 61.5813L128.523 61.5814ZM139.852 54.8483L138.701 55.1787C138.627 54.985 138.523 54.7941 138.383 54.6107C138.242 54.4248 138.053 54.2725 137.813 54.1512C137.576 54.0298 137.27 53.9678 136.895 53.9678C136.385 53.9678 135.959 54.0866 135.622 54.3241C135.282 54.559 135.111 54.8611 135.111 55.2225C135.111 55.5452 135.229 55.8009 135.461 55.9867C135.693 56.1752 136.055 56.33 136.548 56.454L137.788 56.7638C138.533 56.9471 139.089 57.2259 139.457 57.6028C139.822 57.9772 140.005 58.46 140.005 59.0512C140.005 59.5365 139.867 59.9676 139.594 60.3498C139.321 60.7318 138.939 61.0314 138.451 61.2508C137.961 61.4728 137.392 61.5812 136.744 61.5812C135.892 61.5812 135.188 61.3953 134.629 61.0209C134.07 60.6466 133.718 60.0993 133.568 59.3816L134.787 59.0744C134.902 59.5288 135.122 59.8695 135.448 60.0968C135.772 60.324 136.196 60.4375 136.721 60.4375C137.318 60.4375 137.796 60.3084 138.148 60.0503C138.502 59.7922 138.678 59.4797 138.678 59.1183C138.678 58.824 138.576 58.5761 138.375 58.3774C138.171 58.1786 137.859 58.0289 137.438 57.9281L136.048 57.6003C135.282 57.417 134.721 57.1305 134.366 56.7432C134.009 56.3559 133.83 55.8731 133.83 55.2897C133.83 54.812 133.963 54.3913 134.229 54.0247C134.496 53.6581 134.859 53.3689 135.321 53.1598C135.785 52.9507 136.308 52.8474 136.895 52.8474C137.722 52.8474 138.372 53.0308 138.844 53.3973C139.319 53.7639 139.653 54.2467 139.852 54.8483H139.852ZM147.854 54.8483L146.703 55.1787C146.629 54.985 146.525 54.7941 146.384 54.6107C146.244 54.4248 146.055 54.2725 145.815 54.1512C145.578 54.0298 145.272 53.9678 144.897 53.9678C144.386 53.9678 143.96 54.0866 143.623 54.3241C143.284 54.559 143.113 54.8611 143.113 55.2225C143.113 55.5452 143.231 55.8009 143.463 55.9867C143.695 56.1752 144.057 56.33 144.55 56.454L145.79 56.7638C146.535 56.9471 147.091 57.2259 147.458 57.6028C147.823 57.9772 148.007 58.46 148.007 59.0512C148.007 59.5365 147.869 59.9676 147.596 60.3498C147.323 60.7318 146.94 61.0314 146.453 61.2508C145.963 61.4728 145.394 61.5812 144.746 61.5812C143.894 61.5812 143.19 61.3953 142.631 61.0209C142.072 60.6466 141.72 60.0993 141.569 59.3816L142.789 59.0744C142.904 59.5288 143.123 59.8695 143.45 60.0968C143.774 60.324 144.198 60.4375 144.723 60.4375C145.32 60.4375 145.797 60.3084 146.149 60.0503C146.504 59.7922 146.68 59.4797 146.68 59.1183C146.68 58.824 146.578 58.5761 146.377 58.3774C146.172 58.1786 145.861 58.0289 145.44 57.9281L144.05 57.6003C143.284 57.417 142.723 57.1305 142.368 56.7432C142.011 56.3559 141.832 55.8731 141.832 55.2897C141.832 54.812 141.965 54.3913 142.23 54.0247C142.498 53.6581 142.861 53.3689 143.322 53.1598C143.787 52.9507 144.31 52.8474 144.897 52.8474C145.723 52.8474 146.374 53.0308 146.846 53.3973C147.321 53.7639 147.655 54.2467 147.854 54.8483H147.854ZM149.941 61.4058V52.9559H151.225V61.4058H149.941ZM150.594 51.5488C150.344 51.5488 150.13 51.461 149.949 51.2907C149.77 51.1177 149.681 50.9112 149.681 50.6685C149.681 50.4258 149.77 50.2193 149.949 50.0463C150.13 49.8733 150.344 49.7881 150.594 49.7881C150.844 49.7881 151.059 49.8733 151.237 50.0463C151.419 50.2193 151.508 50.4258 151.508 50.6685C151.508 50.9111 151.418 51.1177 151.237 51.2907C151.059 51.4611 150.844 51.5488 150.594 51.5488ZM156.966 61.5813C156.21 61.5813 155.549 61.4006 154.983 61.0366C154.417 60.6751 153.975 60.1665 153.656 59.5134C153.34 58.8601 153.182 58.0986 153.182 57.2259C153.182 56.3456 153.34 55.5763 153.656 54.9205C153.975 54.2647 154.417 53.7536 154.983 53.3921C155.549 53.0281 156.21 52.8474 156.966 52.8474C157.718 52.8474 158.379 53.0281 158.946 53.3921C159.515 53.7535 159.956 54.2647 160.272 54.9205C160.591 55.5763 160.75 56.3456 160.75 57.2259C160.75 58.0986 160.591 58.8601 160.272 59.5134C159.956 60.1665 159.515 60.6751 158.946 61.0366C158.379 61.4006 157.718 61.5813 156.966 61.5813ZM156.966 60.4144C157.537 60.4144 158.009 60.2673 158.379 59.9704C158.749 59.6735 159.022 59.2836 159.198 58.7983C159.377 58.3155 159.466 57.7889 159.466 57.226C159.466 56.6606 159.377 56.1339 159.198 55.646C159.022 55.158 158.749 54.7656 158.379 54.4636C158.009 54.1641 157.537 54.0118 156.966 54.0118C156.391 54.0118 155.922 54.1641 155.552 54.4636C155.182 54.7656 154.909 55.1581 154.73 55.646C154.552 56.1339 154.465 56.6606 154.465 57.226C154.465 57.7889 154.552 58.3155 154.73 58.7983C154.909 59.2837 155.182 59.6735 155.552 59.9704C155.922 60.2673 156.391 60.4144 156.966 60.4144ZM163.99 56.3224V61.4058H162.707V52.9559H163.947V54.2777H164.056C164.25 53.8466 164.549 53.5032 164.947 53.2398C165.345 52.9765 165.86 52.8474 166.491 52.8474C167.057 52.8474 167.552 52.9636 167.976 53.1959C168.399 53.4283 168.728 53.782 168.966 54.2519C169.2 54.7243 169.318 55.3181 169.318 56.0358V61.4057H168.034V56.1261C168.034 55.46 167.866 54.9438 167.524 54.5719C167.182 54.1976 166.715 54.0117 166.121 54.0117C165.712 54.0117 165.348 54.1021 165.026 54.2827C164.705 54.4609 164.452 54.7242 164.268 55.0675C164.082 55.4135 163.99 55.8317 163.99 56.3222L163.99 56.3224ZM174.122 61.6046C173.594 61.6046 173.114 61.5013 172.683 61.2974C172.252 61.096 171.908 60.7991 171.655 60.4119C171.402 60.0272 171.275 59.5574 171.275 59.0074C171.275 58.5246 171.369 58.1296 171.558 57.8276C171.744 57.5256 171.997 57.2881 172.313 57.1151C172.627 56.9421 172.977 56.8131 173.359 56.7279C173.742 56.6401 174.127 56.5729 174.515 56.5213C175.023 56.4542 175.434 56.4051 175.75 56.369C176.069 56.3354 176.301 56.276 176.447 56.1908C176.595 56.1056 176.666 55.961 176.666 55.7519V55.708C176.666 55.1633 176.521 54.7425 176.23 54.443C175.939 54.1409 175.498 53.9912 174.906 53.9912C174.293 53.9912 173.814 54.1254 173.467 54.3991C173.117 54.6701 172.872 54.9593 172.732 55.2665L171.515 54.8276C171.732 54.3139 172.022 53.9137 172.387 53.6246C172.75 53.3381 173.15 53.1341 173.581 53.0205C174.015 52.9043 174.441 52.8475 174.862 52.8475C175.13 52.8475 175.439 52.8784 175.788 52.943C176.138 53.0076 176.477 53.1392 176.807 53.3354C177.133 53.5342 177.406 53.8337 177.623 54.2339C177.842 54.6314 177.95 55.1684 177.95 55.8397V61.4058H176.666V60.2621H176.602C176.516 60.4454 176.37 60.6416 176.166 60.8508C175.964 61.0599 175.694 61.238 175.357 61.3826C175.02 61.5298 174.61 61.6047 174.122 61.6047L174.122 61.6046ZM174.319 60.4377C174.827 60.4377 175.255 60.337 175.605 60.1357C175.954 59.9343 176.22 59.6735 176.398 59.3534C176.577 59.0359 176.666 58.7002 176.666 58.3465V57.159C176.613 57.2261 176.495 57.2855 176.312 57.3371C176.128 57.3913 175.919 57.4379 175.681 57.4766C175.444 57.5153 175.214 57.5463 174.99 57.5747C174.768 57.6031 174.587 57.6263 174.449 57.6444C174.115 57.6883 173.806 57.758 173.518 57.8561C173.229 57.9516 172.997 58.0962 172.821 58.2899C172.645 58.4835 172.558 58.7443 172.558 59.0747C172.558 59.5239 172.724 59.8647 173.056 60.0944C173.387 60.3242 173.809 60.4378 174.319 60.4378V60.4377ZM181.583 50.1393V61.4058H180.3V50.1393H181.583ZM189.845 54.8483L188.694 55.1787C188.62 54.9851 188.516 54.7941 188.376 54.6108C188.235 54.4248 188.046 54.2726 187.806 54.1512C187.569 54.0298 187.263 53.9679 186.888 53.9679C186.378 53.9679 185.951 54.0867 185.615 54.3242C185.275 54.5591 185.104 54.8612 185.104 55.2226C185.104 55.5453 185.222 55.8009 185.454 55.9867C185.686 56.1753 186.048 56.3301 186.541 56.454L187.781 56.7638C188.526 56.9472 189.082 57.2259 189.45 57.6029C189.815 57.9772 189.998 58.46 189.998 59.0512C189.998 59.5366 189.86 59.9677 189.587 60.3498C189.314 60.7319 188.932 61.0314 188.444 61.2508C187.954 61.4729 187.385 61.5813 186.737 61.5813C185.885 61.5813 185.181 61.3954 184.622 61.021C184.063 60.6467 183.711 60.0993 183.561 59.3817L184.78 59.0745C184.895 59.5289 185.115 59.8696 185.441 60.0968C185.765 60.324 186.189 60.4376 186.714 60.4376C187.311 60.4376 187.789 60.3085 188.141 60.0504C188.495 59.7922 188.671 59.4798 188.671 59.1184C188.671 58.824 188.569 58.5762 188.368 58.3775C188.164 58.1786 187.852 58.0289 187.431 57.9282L186.041 57.6003C185.275 57.417 184.714 57.1305 184.359 56.7432C184.002 56.356 183.823 55.8732 183.823 55.2897C183.823 54.8121 183.956 54.3913 184.222 54.0247C184.489 53.6581 184.852 53.3689 185.314 53.1598C185.778 52.9507 186.301 52.8475 186.888 52.8475C187.715 52.8475 188.365 53.0308 188.837 53.3974C189.312 53.764 189.646 54.2467 189.845 54.8483H189.845Z"
            fill="#434242" />
    </g>
    <defs>
        <clipPath id="clip0_1104_4127">
            <rect width="190" height="65" fill="white" />
        </clipPath>
    </defs>
</svg>